<svg width="235" height="200" viewBox="0 0 235 200" fill="none" xmlns="http://www.w3.org/2000/svg">
<path d="M142.842 35.2019C142.842 35.2019 123.141 43.5601 89.7077 13.1123C59.3196 -14.5892 18.4837 3.50036 3.73738 49.5303C-5.81488 79.3811 -2.23278 159.381 77.7674 177.889C118.961 187.441 182.245 179.083 211.499 146.844C232.872 123.321 238.365 92.5154 229.409 50.1273C224.335 26.0676 153.588 17.2914 142.842 35.2019Z" transform="translate(0 18.3967)" fill="#F6D2E0"/>
<path d="M7.87629 36.5836C7.87629 36.5836 2.20464 15.091 18.9211 5.24025C32.354 -2.70006 46.9808 -1.62543 59.2197 8.52384C69.4286 17.0015 67.0406 30.0761 90.6227 42.6135C114.205 55.1508 127.638 60.8224 127.936 81.718C128.235 102.614 112.712 113.061 112.712 113.061L30.6226 135.449C30.6226 135.449 4.95091 122.912 2.26434 102.614C-0.422237 82.315 -2.03418 79.8076 5.24942 62.6135C11.4584 47.9269 7.87629 36.5836 7.87629 36.5836Z" transform="translate(106.906)" fill="#4F216E"/>
<path d="M17.015 73.1345L27.4627 78.0897C28.7165 76.2987 29.9105 74.5076 31.0448 72.6569C33.5523 67.1643 36.4777 57.1344 36.1195 41.1941C35.5224 14.0299 8.35822 0 8.35822 0L0 9.55226C0 9.55226 10.0299 5.73135 16.4179 37.612C20.597 58.2688 17.015 73.1345 17.015 73.1345Z" transform="translate(190.305 79.2702)" fill="#70C7F6"/>
<path d="M95.4432 17.1442C94.0701 14.7561 90.3686 9.68145 87.3835 7.29339C81.7715 2.81577 71.3238 -4.10962 56.0998 3.17398C36.0998 12.7262 41.4729 28.8457 21.1744 31.5322C0.875861 34.2188 -4.19878 52.4278 3.26393 67.3532C10.7266 82.2786 24.458 90.0398 43.264 90.3383C62.07 90.6368 83.2641 105.861 92.8163 96.9055C102.369 87.9503 107.384 73.8607 103.204 61.9204C99.0253 49.98 95.4432 50.2785 98.1298 38.3382C99.8611 30.5173 97.5328 20.7263 95.4432 17.1442Z" transform="translate(18.1451 12.8723)" fill="#212121"/>
<path d="M0.0524985 0C0.0524985 0 20.6495 3.8806 44.9481 31.0448C67.2168 55.8807 68.4108 8.83584 68.4108 8.83584L68.5302 64.1792C68.5302 64.1792 29.4257 53.4329 13.9033 38.209C-1.61915 22.9851 0.0524985 0 0.0524985 0Z" transform="translate(91.3267 91.509)" fill="#DD4384"/>
<path d="M48.0598 0L11.3433 33.7314L0 50.7464L5.67165 58.8061L65.9703 17.612L48.0598 0Z" transform="translate(86.7228 95.3896)" fill="#70C7F6"/>
<path d="M69.3135 47.5064C72.2389 44.2826 74.8061 40.999 77.1345 37.4766C77.0748 36.9393 76.9554 36.4019 76.836 35.8646C69.9703 8.99891 54.7464 9.59593 54.7464 9.59593C54.7464 9.59593 26.9851 -13.6877 14.7463 12.2825C4.05971 34.9691 0.716419 71.0886 0 79.8647C27.1642 75.5662 53.3135 65.1184 69.3135 47.5064Z" transform="translate(142.185 117.734)" fill="#212121"/>
<path d="M0 22.3096C0 22.3096 6.56717 53.9514 23.8806 66.1902C41.1941 78.4291 62.9852 74.5485 69.8509 59.3246C76.7165 44.1006 73.1345 11.5633 65.3732 4.9961C57.612 -1.57108 26.5672 -6.34721 0 22.3096Z" transform="translate(133.29 74.2741)" fill="url(#paint0_linear)"/>
<path d="M16.6577 6.92397C4.12037 -9.79247 3.52335 9.01353 3.52335 9.01353C3.52335 9.01353 5.61291 16.4762 0.538273 31.4016C-0.655759 34.8643 0.239767 37.4315 2.20992 39.4017C3.40395 39.342 4.53828 39.2822 5.73231 39.2225C5.91142 39.2225 6.03082 39.2225 6.20992 39.1628C7.34426 39.1031 8.53829 38.9837 9.67262 38.924C9.85173 38.924 9.97112 38.924 10.1502 38.8643C12.5383 38.6255 14.9861 38.3867 17.3741 38.0882C17.4935 38.0882 17.6129 38.0882 17.7323 38.0285C18.9264 37.8494 20.1801 37.73 21.3741 37.5509C21.4338 37.5509 21.4935 37.5509 21.5532 37.5509C24.0607 37.1927 26.5085 36.7748 28.9562 36.2972C29.0159 36.2972 29.0756 36.2972 29.1353 36.2375C30.3891 35.9987 31.6428 35.7599 32.8368 35.4613C36.5383 34.6852 40.1204 33.73 43.7025 32.7151C38.8667 29.3121 26.4488 19.9986 16.6577 6.92397Z" transform="translate(119.02 160.406)" fill="url(#paint1_linear)"/>
<path d="M0 64.3583C4.17911 70.3882 9.13435 76.0598 15.1045 81.1942C16.8956 69.1345 21.015 49.015 29.3732 36.2986C41.9105 17.1941 36.2389 0 36.2389 0C36.2389 0 4.29851 9.43284 0.119403 62.8061C0.0597009 63.3434 0 63.821 0 64.3583Z" transform="translate(18.3047 93.4792)" fill="#DD4384"/>
<path d="M86.2009 63.206C80.8278 53.6537 55.7531 9.77306 55.7531 9.77306C55.7531 9.77306 19.0366 -10.5255 10.0813 7.385C2.61865 22.3104 -0.664943 27.2656 0.111178 47.3254C9.66343 53.5343 21.1261 58.4896 34.7978 61.6538C50.0814 65.1761 68.4098 66.2508 86.8576 64.5791C86.7382 64.1612 86.4994 63.6836 86.2009 63.206Z" transform="translate(42.9099 134.572)" fill="#4F216E"/>
<path d="M29.8804 0.428568C29.8804 0.428568 0.0296041 -2.55651 0.0296041 17.145C0.0296041 36.8465 -0.86592 49.0854 7.1938 58.0406C15.2535 66.9959 27.7908 73.2645 46.5969 64.9063C65.4029 56.5481 64.2088 24.0107 64.2088 24.0107C64.2088 24.0107 69.2835 -3.75054 29.8804 0.428568Z" transform="translate(44.0063 90.4835)" fill="url(#paint2_linear)"/>
<path d="M15.8892 1.53685C15.8892 1.53685 18.8743 11.9846 20.9639 16.1637C23.0534 20.3429 24.8445 23.6264 23.3519 26.313C21.8594 28.9996 16.4863 32.8802 10.5161 29.2981C4.54594 25.716 7.82953 16.7608 1.26236 6.31298C-5.30482 -4.1348 15.8892 1.53685 15.8892 1.53685Z" transform="translate(154.416 61.3155)" fill="url(#paint3_linear)"/>
<path d="M16.4897 7.27062C16.4897 7.27062 15.7732 19.5095 14.4001 23.9274C13.027 28.405 6.4598 30.9722 2.40009 26.4945C-2.01783 21.6587 0.788149 18.6139 1.98218 5.41987C3.17621 -7.77418 16.4897 7.27062 16.4897 7.27062Z" transform="translate(66.5912 73.2534)" fill="url(#paint4_linear)"/>
<path d="M38.3003 7.86471C38.3003 7.86471 49.8227 24.5812 46.6585 39.6857C43.4943 54.7902 31.1361 53.2379 23.554 49.2379C15.9719 45.2379 5.22558 36.5215 0.449455 20.5812C-4.32667 4.64083 30.36 -9.26965 38.3003 7.86471Z" transform="translate(127.229 20.48)" fill="white"/>
<path d="M18.8095 0.973893C18.8095 0.973893 -0.295046 10.8247 0.00346205 32.6157C0.30197 54.4068 19.4065 58.2874 31.9438 49.6307C44.4812 40.974 48.9588 23.959 43.2871 14.7053C37.6155 5.45152 30.4513 -2.90671 18.8095 0.973893Z" transform="translate(58.6594 34.4156)" fill="white"/>
<path d="M7.65062 4.23251C7.65062 4.23251 1.85957 0.829523 0.486431 0.0534025C-0.886706 -0.722718 1.08345 7.2176 1.08345 7.2176L7.65062 4.23251Z" transform="translate(116.863 152.232)" fill="url(#paint5_linear)"/>
<path d="M0 3.37654C0 3.37654 6.08956 0.63026 7.5821 0.0332444C9.07464 -0.563772 6.20897 7.07804 6.20897 7.07804L0 3.37654Z" transform="translate(134.723 153.864)" fill="url(#paint6_linear)"/>
<path d="M8.59704 23.8209C8.59704 23.8209 19.7015 36.1195 50.4479 25.6717L51.6419 17.612L40.0001 1.79105C40.0001 1.79105 30.4478 1.79105 29.2538 1.19403C28.0598 0.597016 9.25375 0 9.25375 0L0 15.8209L0.895524 30.4478L10.3881 50.5076C10.3881 50.4479 17.5523 33.6717 8.59704 23.8209Z" transform="translate(121.111 12.4642)" fill="#4F216E"/>
<path d="M34.0299 19.1045C34.0299 19.1045 33.1344 36.1195 51.9404 37.612L55.821 33.4329L55.5225 18.209L49.8508 2.68657L22.9851 0L3.28359 13.4329L0 31.0448L7.16419 24.7762C7.16419 24.7762 18.806 30.1493 34.0299 19.1045Z" transform="translate(52.0956 29.7179)" fill="#212121"/>
<path d="M15.0968 0.359089C15.0968 0.359089 7.99227 -1.43196 3.39525 2.98596C-1.20178 7.40387 -1.73909 17.6725 5.60421 19.583C12.8878 21.4934 22.0221 22.986 24.4102 17.1949C26.858 11.4039 28.4102 2.50835 15.0968 0.359089Z" transform="translate(115.686 153.717)" fill="#ED8D37"/>
<path d="M5.02084 3.56306C4.24472 3.74216 3.4686 3.50336 2.75218 2.84665C2.33427 3.08545 1.91636 3.20486 1.49845 3.14516C0.961139 3.14516 0.483522 2.90635 0.244716 2.54814C-0.232897 1.77202 0.125309 1.35411 0.185011 1.35411C0.304414 1.2347 0.543222 1.23471 0.662625 1.41381C0.782029 1.53322 0.782029 1.71231 0.662625 1.83171C0.662625 1.89141 0.662624 1.95112 0.782027 2.18993C0.841728 2.30933 1.08054 2.48843 1.43875 2.48843C1.61785 2.48843 1.85666 2.48844 2.21487 2.30934C2.03577 2.07053 1.85666 1.83171 1.73726 1.5332C1.49845 1.05559 1.55815 0.577976 1.97606 0.279468C2.51337 -0.138444 3.588 -0.0787347 4.06561 0.398878C4.36412 0.697386 4.36412 1.175 4.06561 1.59291C3.82681 1.95112 3.5283 2.24963 3.2298 2.48843C3.70741 2.90635 4.18502 3.02576 4.72234 2.90635C5.43876 2.72725 5.43875 2.30933 5.43875 2.24963C5.43875 2.07053 5.55816 1.89142 5.73726 1.89142C5.91637 1.89142 6.09548 2.01082 6.09548 2.18993C6.09548 2.54814 5.91637 3.26455 5.02084 3.56306C5.08055 3.56306 5.14025 3.56306 5.02084 3.56306ZM2.45367 0.816797C2.39397 0.876498 2.27457 0.936185 2.45367 1.17499C2.57308 1.4735 2.75218 1.71231 2.93129 1.89142C3.17009 1.71231 3.4089 1.47351 3.64771 1.1153C3.76711 0.9362 3.70741 0.876498 3.70741 0.816797C3.52831 0.637692 2.99099 0.577983 2.69249 0.697386C2.57308 0.757088 2.51338 0.757095 2.45367 0.816797Z" transform="translate(123.612 165.857)" fill="white"/>
<path d="M9.67166 3.0937C9.67166 3.0937 6.02986 0.825038 2.44777 0.0489175C-1.13433 -0.667502 -0.179104 6.67579 1.49254 9.60117C3.16419 12.5266 12.0597 5.06385 9.67166 3.0937Z" transform="translate(63.7375 28.8331)" fill="#DD4384"/>
<path d="M0.395614 7.70425C0.395614 7.70425 4.03741 10.0923 7.73891 10.8087C11.3807 11.5252 10.5449 3.70425 8.81354 0.659466C7.14189 -2.32561 -1.99245 5.6744 0.395614 7.70425Z" transform="translate(73.3717 25.8346)" fill="#DD4384"/>
<path d="M0.238237 1.17493C0.238237 1.17493 0.656151 0.398812 3.04422 0.040602C6.3278 -0.437011 6.1487 3.44359 5.07407 4.10031C3.93974 4.69733 1.25317 5.29434 0.715852 4.51822C-0.239374 3.20479 -0.0602707 2.13016 0.238237 1.17493Z" transform="translate(70.9023 29.9758)" fill="#DD4384"/>
<path d="M9.88943 5.27724C9.88943 5.27724 7.08345 1.99365 3.91927 0.262304C0.755081 -1.46904 -0.558362 5.81455 0.217759 9.09814C0.874476 12.3817 11.5611 7.84441 9.88943 5.27724Z" transform="translate(147.46 12.0825)" fill="#DD4384"/>
<path d="M0.170373 5.39157C0.170373 5.39157 2.97636 8.73486 6.25994 10.5259C9.54353 12.317 10.9764 4.55575 10.3196 1.15276C9.66293 -2.25023 -1.50127 2.705 0.170373 5.39157Z" transform="translate(157.06 13.6398)" fill="#DD4384"/>
<path d="M0.759874 0.377945C0.759874 0.377945 1.4166 -0.278773 3.80466 0.139138C7.08825 0.676452 5.77482 4.31825 4.52109 4.61676C3.26735 4.85556 0.521072 4.61676 0.222564 3.72123C-0.314751 2.22869 0.22256 1.21377 0.759874 0.377945Z" transform="translate(154.62 15.5489)" fill="#DD4384"/>
<path d="M5.98418 4.3465C5.98418 4.3465 5.20806 2.01813 3.89463 0.406191C2.58119 -1.20575 0.312529 2.37634 0.0140213 4.22709C-0.344188 6.13754 6.28269 6.07785 5.98418 4.3465Z" transform="translate(127.604 151.282)" fill="#DD4384"/>
<path d="M0.00938339 1.41125C0.00938339 1.41125 0.725803 3.79931 2.09894 5.47095C3.47208 7.1426 5.91984 3.3814 6.27805 1.41125C6.63626 -0.558904 -0.289125 -0.379799 0.00938339 1.41125Z" transform="translate(133.161 155.053)" fill="#DD4384"/>
<path d="M1.01493 0.0199015C1.01493 0.0199015 1.49254 -0.159207 2.68657 0.557212C4.29852 1.57214 2.80598 3.18407 2.08956 3.06467C1.37314 2.94527 0 2.22885 0 1.63183C0.0597016 0.73631 0.537322 0.31841 1.01493 0.0199015Z" transform="translate(131.857 154.415)" fill="#DD4384"/>
<path d="M17.4739 12.4506C7.98136 12.4506 0.57836 7.43562 0.279853 7.19681C-0.0186555 7.01771 -0.0783589 6.6595 0.100746 6.361C0.279851 6.06249 0.638061 6.00278 0.936569 6.18189C0.996271 6.24159 9.11569 11.7341 18.9665 11.1371C21.7724 10.958 25.1157 10.958 28.6381 10.958C37.8322 10.958 48.2799 10.958 53.5337 8.09234C60.8173 4.09233 65.2949 0.211724 65.3546 0.152023C65.5934 -0.0867839 65.9516 -0.0270786 66.1904 0.211728C66.4292 0.450534 66.3695 0.80874 66.1307 1.04755C66.071 1.10725 61.474 5.04755 54.071 9.10726C48.5784 12.152 37.9516 12.152 28.6381 12.152C25.1157 12.152 21.8321 12.1521 19.0262 12.3312C18.4888 12.4506 18.0112 12.4506 17.4739 12.4506Z" transform="translate(39.8755 97.2674)" fill="#A52861"/>
<path d="M12.2036 14.8902C11.7857 14.8902 11.3678 14.8902 10.9498 14.8902C4.32296 14.711 0.263256 7.72596 0.0841516 7.42745C-0.0949532 7.12894 0.0244509 6.77074 0.322959 6.59163C0.621467 6.41253 0.979675 6.53193 1.15878 6.83043C1.21848 6.89014 5.03939 13.517 11.0095 13.6961C13.9946 13.8155 16.1439 13.517 18.4125 13.2782C20.9797 12.9797 23.8454 12.6215 28.323 12.7409C29.935 12.8006 31.5469 12.8603 33.2782 12.92C40.323 13.2185 48.2634 13.5767 54.7708 11.3678C63.1888 8.50208 72.9201 3.00953 74.3529 0.322962C74.5321 0.0244544 74.8903 -0.0949543 75.1888 0.0841505C75.4873 0.263255 75.6067 0.62147 75.4276 0.919978C73.6962 4.14387 63.129 9.81552 55.1887 12.5618C48.5022 14.8305 40.3827 14.4722 33.2185 14.1737C31.4872 14.114 29.8752 14.0543 28.2633 13.9946C23.9051 13.8752 21.1588 14.2334 18.5319 14.5319C16.5618 14.6513 14.6513 14.8902 12.2036 14.8902Z" transform="translate(36.3101 100.022)" fill="#A52861"/>
<path d="M47.2484 15.629C44.741 15.629 42.1141 15.4499 39.3081 15.3305C34.4723 15.0319 29.0394 14.7334 22.532 15.0916C4.44237 16.1066 0.263256 8.70358 0.0841516 8.40507C-0.0949532 8.10656 0.0244509 7.74835 0.322959 7.56925C0.621467 7.39014 0.979675 7.50954 1.15878 7.80805C1.15878 7.86775 2.17371 9.5991 5.27819 11.211C8.14387 12.7036 13.4573 14.3752 22.532 13.8976C29.0991 13.5394 34.5917 13.8379 39.4275 14.1364C47.6663 14.614 54.1738 15.0319 61.0992 11.5693L84.2037 0.0468431C84.5022 -0.0725601 84.8604 0.0468395 84.9798 0.285646C85.0992 0.584154 84.9798 0.942365 84.741 1.06177L61.5768 12.5842C56.8007 14.9722 52.2634 15.629 47.2484 15.629Z" transform="translate(32.1309 104.417)" fill="#A52861"/>
<path d="M21.6494 10.7096C12.7538 10.7096 0.992626 6.17228 0.39561 5.99318C0.0971016 5.87378 -0.0820023 5.51557 0.0374009 5.21706C0.156804 4.91855 0.515016 4.73944 0.813524 4.85884C0.992628 4.91855 16.6941 10.9484 25.1718 9.21706C28.1569 8.62005 31.0822 8.44094 33.8882 8.26183C39.3211 7.90362 44.5151 7.60512 49.2315 4.14243C52.5748 1.69466 53.8882 0.739433 54.4256 0.381223C54.4853 0.321522 54.545 0.321524 54.6047 0.261822C54.6644 0.20212 54.7241 0.202122 54.7241 0.142421C55.0226 -0.0366842 55.3211 -0.0963877 55.5599 0.261822C55.7987 0.56033 55.7987 0.739431 55.3808 1.09764L55.0823 1.33645C54.9032 1.45586 54.6644 1.63496 54.3659 1.87376L49.8882 5.15735C44.8733 8.85885 39.5599 9.15736 33.8882 9.51557C31.1419 9.69468 28.2763 9.87378 25.3509 10.4708C24.2763 10.5902 23.0225 10.7096 21.6494 10.7096Z" transform="translate(44.4761 93.7547)" fill="#A52861"/>
<path d="M12.7876 2.99652C6.51892 2.99652 0.668155 1.26517 0.429348 1.14577C0.13084 1.02636 -0.0482626 0.727856 0.011439 0.429348C0.130842 0.13084 0.429348 -0.0482626 0.727856 0.011439C0.787558 0.011439 7.29504 1.98159 13.6831 1.80249C13.9816 1.80249 14.2801 2.04129 14.2801 2.3995C14.2801 2.75771 14.0413 2.99652 13.6831 2.99652C13.4443 2.99652 13.1458 2.99652 12.7876 2.99652Z" transform="translate(51.2483 94.3632)" fill="#A52861"/>
<path d="M0.597016 4.93996C0.238806 4.93996 0 4.70116 0 4.34295C0 3.98474 0.238806 3.74593 0.597016 3.74593C0.656718 3.74593 5.85076 3.68624 10.5672 0.10414C10.806 -0.0749647 11.2239 -0.0152649 11.403 0.223541C11.5821 0.462348 11.5224 0.880256 11.2836 1.05936C6.26867 4.88026 0.835822 4.93996 0.597016 4.93996Z" transform="translate(81.7075 92.5989)" fill="#A52861"/>
<path d="M35.129 16.6894C29.5767 16.6894 25.2185 15.8535 21.8752 15.1968C19.129 14.6595 16.92 14.2416 15.3081 14.5401C9.81551 15.4356 0.681168 10.4804 0.322959 10.3013C0.0244509 10.1222 -0.0949532 9.76398 0.0841516 9.46548C0.263256 9.16697 0.621467 9.04756 0.919975 9.22666C1.03938 9.28637 10.0543 14.1819 15.1887 13.3461C17.0394 13.0476 19.3081 13.4655 22.1737 14.0625C27.9648 15.1968 36.7409 16.8685 49.7559 13.7043C58.5917 11.555 63.6067 10.6595 67.2485 10.0625C71.4873 9.34607 73.5768 8.98786 77.4574 7.19681C84.4425 3.97293 88.9201 0.152023 88.9798 0.152023C89.2186 -0.0867839 89.5769 -0.0270786 89.8157 0.211728C90.0545 0.450534 89.9948 0.80874 89.756 1.04755C89.5769 1.22665 85.1589 5.04755 77.9947 8.33114C73.9947 10.1819 71.8455 10.5401 67.547 11.2565C63.9052 11.9132 58.9499 12.7491 50.1738 14.8983C44.2036 16.2118 39.3081 16.6894 35.129 16.6894Z" transform="translate(28.2501 110.7)" fill="#A52861"/>
<path d="M13.1204 10.0709C5.71741 10.0709 0.58307 7.62315 0.344264 7.50374C0.0457557 7.38434 -0.0736475 7.02613 0.0457557 6.72762C0.165159 6.42911 0.52337 6.30971 0.821878 6.42911C0.88158 6.48881 8.16518 9.89181 17.598 8.57837C22.7324 7.86196 26.5533 7.68285 29.6578 7.50374C32.5234 7.38434 34.7921 7.26494 37.0608 6.78733C38.0757 6.60822 39.6876 6.30971 41.5384 6.0112C48.4041 4.93657 61.1802 2.90672 62.9115 0.279846C63.0907 -0.0186617 63.4489 -0.0783561 63.7474 0.100749C64.0459 0.279854 64.1056 0.63806 63.9265 0.936568C62.016 3.80224 51.9265 5.59329 41.7175 7.20524C39.8667 7.50374 38.2548 7.74255 37.2996 7.98136C34.9115 8.45897 32.5831 8.57837 29.7175 8.69778C26.6727 8.81718 22.8518 9.05599 17.7771 9.77241C16.1652 9.95151 14.5532 10.0709 13.1204 10.0709Z" transform="translate(43.9304 123.826)" fill="#A52861"/>
<path d="M16.459 6.90673C9.77241 6.90673 0.697764 1.41418 0.279852 1.11567C-0.0186555 0.936567 -0.0783589 0.578361 0.100746 0.279853C0.279851 -0.0186555 0.638061 -0.0783589 0.936569 0.100746C1.05597 0.160447 11.5635 6.54852 17.8321 5.59329C18.1306 5.53359 18.4888 5.7724 18.4888 6.07091C18.5485 6.36941 18.3097 6.72763 18.0112 6.72763C17.5336 6.84703 16.9963 6.90673 16.459 6.90673Z" transform="translate(25.0098 124.781)" fill="#A52861"/>
<path d="M12.8075 8.68118C5.88216 8.68118 0.509012 7.30805 0.44931 7.30805C0.150802 7.24835 -0.0880024 6.89013 0.0314008 6.59162C0.0911024 6.29312 0.44931 6.05431 0.747818 6.17371C0.867221 6.17371 12.0911 9.09909 22.9568 6.35282C28.8673 4.86028 36.8673 4.20356 44.0315 3.60654C49.8822 3.12893 55.4345 2.65132 56.8673 1.8752L60.0315 0.0841527C60.33 -0.0949521 60.6882 0.0244475 60.8673 0.322955C61.0464 0.621463 60.927 0.979679 60.6285 1.15878L57.4643 2.94983C55.8524 3.84536 50.6584 4.32297 44.1509 4.86028C37.1061 5.4573 29.1061 6.11402 23.315 7.60656C19.6732 8.38268 16.0314 8.68118 12.8075 8.68118Z" transform="translate(45.3179 131.843)" fill="#A52861"/>
<path d="M19.5224 7.70151C19.2836 7.70151 19.1045 7.58211 18.9851 7.403C18.9851 7.403 17.4329 4.77613 11.1642 4.95523C4.23881 5.19404 0.35821 1.13434 0.179105 1.01493C-0.0597016 0.776126 -0.0597016 0.417911 0.179105 0.179105C0.417911 -0.0597016 0.776119 -0.0597016 1.01493 0.179105C1.07463 0.238806 4.71643 4.00001 11.1045 3.7612C18.1493 3.52239 19.9403 6.74628 20 6.86568C20.1791 7.16419 20.0597 7.52241 19.7612 7.70151C19.7015 7.64181 19.5821 7.70151 19.5224 7.70151Z" transform="translate(23.0209 130.673)" fill="#A52861"/>
<path d="M14.8983 6.12218C6.54009 6.12218 0.450531 1.28635 0.211725 1.04755C-0.0270813 0.868442 -0.086782 0.450534 0.152024 0.211728C0.331129 -0.0270786 0.749039 -0.0867839 0.987845 0.152023C1.04755 0.211724 8.27144 5.94308 17.4655 4.80875C17.764 4.74905 18.0625 4.98785 18.1222 5.34606C18.1819 5.64457 17.9431 5.94308 17.5849 6.00278C16.6297 6.06248 15.7938 6.12218 14.8983 6.12218Z" transform="translate(21.854 135.775)" fill="#A52861"/>
<path d="M16.2388 5.63547C12.4179 5.63547 8.47763 3.84442 5.67165 2.23248C2.38806 0.322025 1.07463 1.51606 1.01493 1.57576C0.776122 1.81457 0.417911 1.81457 0.179105 1.57576C-0.0597016 1.33696 -0.0597016 0.978742 0.179105 0.739936C0.238806 0.680234 2.14926 -1.17051 6.26867 1.21755C9.31345 3.0086 13.7911 4.97875 17.7911 4.32203C18.0896 4.26233 18.4478 4.50114 18.4478 4.79965C18.5075 5.09815 18.2687 5.45637 17.9702 5.45637C17.3732 5.63547 16.8359 5.63547 16.2388 5.63547Z" transform="translate(19.8567 142.172)" fill="#A52861"/>
<path d="M19.1045 5.13433C18.9851 5.13433 18.8657 5.13433 18.806 5.07463C13.0149 1.61193 0.716419 1.19403 0.597016 1.19403C0.238806 1.19403 0 0.895524 0 0.597016C0 0.238806 0.298508 0 0.597016 0C1.13433 0 13.3732 0.417913 19.403 4.05971C19.7015 4.23882 19.7612 4.59702 19.5821 4.89553C19.4627 5.07463 19.2836 5.13433 19.1045 5.13433Z" transform="translate(18.6627 147.927)" fill="#A52861"/>
<path d="M17.86 7.77252C17.7406 7.77252 17.5615 7.71281 17.5018 7.65311C12.7256 3.5934 0.606225 1.26505 0.486822 1.20535C0.188314 1.14564 -0.0504919 0.847129 0.00920965 0.488919C0.0689113 0.13071 0.36742 -0.0483878 0.725629 0.0113138C1.26294 0.130717 13.263 2.45907 18.3376 6.69788C18.5764 6.93669 18.6361 7.29491 18.3973 7.53372C18.2182 7.71282 18.0391 7.77252 17.86 7.77252Z" transform="translate(18.4744 151.08)" fill="#A52861"/>
<path d="M17.2948 9.4142C16.9963 9.4142 16.7575 9.1754 16.6978 8.87689C16.6978 8.75749 16.1605 5.35449 9.23509 4.22016C1.65299 3.02612 0.220149 1.11567 0.100746 0.936567C-0.0783586 0.638059 -0.0186563 0.279854 0.279852 0.100749C0.57836 -0.078356 0.936569 -0.0186617 1.11567 0.279846C1.17538 0.339548 2.54851 1.95149 9.4142 3.02612C17.3545 4.27986 17.8321 8.57838 17.8918 8.75748C17.9515 9.05599 17.7127 9.3545 17.3545 9.4142H17.2948Z" transform="translate(17.6664 157.2)" fill="#A52861"/>
<path d="M8.17912 5.7959C8.00001 5.7959 7.76121 5.6765 7.6418 5.49739C7.6418 5.43769 5.01493 1.01978 0.597016 1.19889C0.238806 1.19889 0 0.960079 0 0.60187C0 0.24366 0.238806 0.00485365 0.597016 0.00485365C5.67165 -0.174251 8.59703 4.66157 8.71643 4.90037C8.89554 5.19888 8.77614 5.55711 8.47763 5.73621C8.41793 5.73621 8.29852 5.7959 8.17912 5.7959Z" transform="translate(25.1703 166.012)" fill="#A52861"/>
<path d="M6.91012 6.8386C1.95489 6.8386 0.462348 5.82367 0.223542 5.64457C-0.0152649 5.46546 -0.0749647 5.04756 0.10414 4.80875C0.283245 4.56994 0.701157 4.51024 0.939964 4.68935C0.999665 4.74905 4.22355 6.83861 17.4176 4.56995L18.0146 4.45054C31.2684 2.18188 33.6564 1.76396 38.8505 2.36098C43.9848 2.958 53.1192 1.94307 55.0893 0.152023C55.3281 -0.0867839 55.6863 -0.0270786 55.9251 0.211728C56.1639 0.450534 56.1042 0.80874 55.8654 1.04755C53.4177 3.25651 43.746 4.15203 38.6714 3.61472C33.6564 3.0177 31.6266 3.37591 18.1937 5.70427L17.5967 5.82367C12.94 6.54009 9.47729 6.8386 6.91012 6.8386Z" transform="translate(47.8721 139.954)" fill="#A52861"/>
<path d="M9.6211 4.83583C4.72557 4.83583 0.844966 4.59703 0.546458 4.59703C0.188249 4.59703 -0.0505587 4.29852 0.0091429 3.94031C0.0091429 3.5821 0.30765 3.3433 0.66586 3.403C0.844964 3.403 18.1584 4.35822 26.1584 2.20897C34.2779 7.25933e-06 45.9197 0 46.0391 0C46.3973 0 46.6361 0.238806 46.6361 0.597016C46.6361 0.955226 46.3973 1.19403 46.0391 1.19403C45.9197 1.19403 34.457 1.19404 26.5167 3.34329C22.039 4.53733 15.1733 4.83583 9.6211 4.83583Z" transform="translate(53.6985 146.494)" fill="#A52861"/>
<path d="M8.95524 3.32099C4.35822 3.32099 0.955226 3.20158 0.597016 3.20158C0.238806 3.20158 0 2.90307 0 2.60456C0 2.24635 0.298508 2.00755 0.597016 2.00755C0.835822 2.00755 26.4478 2.78368 35.0448 0.0374014C35.3434 -0.0820018 35.7016 0.0970976 35.821 0.395606C35.9404 0.694114 35.7613 1.05233 35.4628 1.17173C29.7314 3.02248 17.3135 3.32099 8.95524 3.32099Z" transform="translate(58.2449 152.248)" fill="#A52861"/>
<path d="M0.583076 15.2331C0.344269 15.2331 0.165159 15.1137 0.0457557 14.8749C-0.0736475 14.5764 0.0457557 14.2182 0.344264 14.0988C5.18009 11.8898 17.8965 5.14355 18.7921 0.486824C18.8518 0.188316 19.1503 -0.050492 19.5085 0.00920959C19.807 0.0689112 20.0458 0.367417 19.9861 0.725627C19.4488 3.3525 16.0458 6.63608 9.83682 10.3973C5.2995 13.1436 0.88158 15.1734 0.821878 15.2331C0.702475 15.1734 0.642777 15.2331 0.583076 15.2331Z" transform="translate(120.468 125.53)" fill="#A52861"/>
<path d="M0.569936 15.1734C0.390831 15.1734 0.271429 15.1137 0.152026 14.9943C-0.0867801 14.7555 -0.027084 14.3973 0.211722 14.1585C0.331126 14.0391 3.31621 11.4122 8.92816 7.83012C14.2416 4.48683 14.8983 0.546526 14.8983 0.486824C14.958 0.188316 15.2565 -0.050492 15.555 0.00920959C15.8535 0.0689112 16.0924 0.367423 16.0326 0.665931C16.0326 0.845036 15.3162 5.14355 9.46547 8.84505C3.97292 12.3077 0.987841 14.9943 0.92814 14.9943C0.808737 15.1137 0.689339 15.1734 0.569936 15.1734Z" transform="translate(128.541 129.47)" fill="#A52861"/>
<path d="M0.62147 13.5252C0.382664 13.5252 0.203554 13.4058 0.0841505 13.2267C-0.0949543 12.9282 0.0244544 12.57 0.322962 12.3909C4.62148 10.0625 12.9797 0.271429 13.0991 0.211728C13.3379 -0.0270786 13.6961 -0.0867839 13.9349 0.152023C14.1737 0.390829 14.2334 0.749044 13.9946 0.98785C13.6364 1.40576 5.39759 11.0774 0.860273 13.4655C0.800572 13.4655 0.740874 13.5252 0.62147 13.5252Z" transform="translate(135.235 133.805)" fill="#A52861"/>
<path d="M0.606226 10.3061C0.546524 10.3061 0.546517 10.3061 0.486815 10.3061C0.188307 10.2464 -0.0504917 9.94786 0.00920986 9.64935C1.02414 2.78367 8.24802 0.156805 8.54653 0.0374014C8.84504 -0.0820018 9.20325 0.0970976 9.32266 0.395606C9.44206 0.694114 9.26296 1.05233 8.96445 1.17173C8.90475 1.17173 2.09877 3.7389 1.20324 9.82846C1.14354 10.0673 0.904734 10.3061 0.606226 10.3061Z" transform="translate(143.012 140.009)" fill="#A52861"/>
<path d="M5.18687 2.01924C5.18687 2.01924 4.94807 -0.368826 1.66448 0.0490848C-1.61911 0.526698 0.589851 4.34761 2.85851 4.64612C5.12717 4.94462 5.18687 2.01924 5.18687 2.01924Z" transform="translate(192.103 112.415)" fill="#0CB0EA"/>
<path d="M0.378793 1.33584C0.378793 1.33584 -1.35256 3.54479 2.58774 5.27614C6.52805 7.00748 7.24447 2.35076 5.03551 0.619411C2.82655 -1.11194 0.378793 1.33584 0.378793 1.33584Z" transform="translate(156.374 104.979)" fill="#0CB0EA"/>
<path d="M1.81367 0.00350842C1.81367 0.00350842 -0.454988 -0.235293 0.0823263 3.2274C0.619641 6.69009 4.14202 5.13785 4.38083 2.86919C4.55994 0.660228 1.81367 0.00350842 1.81367 0.00350842Z" transform="translate(206.282 106.491)" fill="#0CB0EA"/>
<path d="M1.81367 0.00350879C1.81367 0.00350879 -0.454988 -0.235301 0.0823263 3.22739C0.619641 6.69008 4.14204 5.13785 4.38085 2.86919C4.55995 0.600527 1.81367 0.00350879 1.81367 0.00350879Z" transform="translate(187.894 136.282)" fill="#0CB0EA"/>
<path d="M2.19101 0.00257777C2.19101 0.00257777 -0.55526 -0.236229 0.101457 3.88318C0.758175 8.00259 4.93729 6.21155 5.2358 3.46527C5.47461 0.718999 2.19101 0.00257777 2.19101 0.00257777Z" transform="translate(152.89 127.328)" fill="#0CB0EA"/>
<path d="M1.75588 0.00373143C1.75588 0.00373143 -0.453079 -0.235077 0.0842356 3.10821C0.561848 6.4515 3.96484 4.95896 4.20364 2.8097C4.38275 0.600745 1.75588 0.00373143 1.75588 0.00373143Z" transform="translate(145.862 87.9233)" fill="#0CB0EA"/>
<path d="M4.94281 1.91532C4.94281 1.91532 4.704 -0.413035 1.59952 0.0645773C-1.56467 0.54219 0.584603 4.12429 2.73386 4.4228C4.88312 4.7213 4.94281 1.91532 4.94281 1.91532Z" transform="translate(219.153 118.012)" fill="#0CB0EA"/>
<path d="M3.42142 1.35031C3.42142 1.35031 3.24231 -0.261634 1.09305 0.0368741C-1.05621 0.335382 0.376639 2.90255 1.86918 3.08165C3.36172 3.26075 3.42142 1.35031 3.42142 1.35031Z" transform="translate(178.764 78.2185)" fill="#0CB0EA"/>
<path d="M0.239442 3.31214C0.239442 3.31214 1.37377 5.40169 4.12005 3.73005C6.86632 2.0584 3.52303 -0.508771 1.37377 0.0882451C-0.775489 0.685261 0.239442 3.31214 0.239442 3.31214Z" transform="translate(174.901 125.51)" fill="#0CB0EA"/>
<path d="M0.239442 3.31214C0.239442 3.31214 1.37377 5.40169 4.12005 3.73005C6.86632 2.0584 3.52303 -0.508771 1.37377 0.0882451C-0.775489 0.685261 0.239442 3.31214 0.239442 3.31214Z" transform="translate(122.901 110.884)" fill="#0CB0EA"/>
<path d="M0.239433 3.31213C0.239433 3.31213 1.37376 5.40168 4.12004 3.73004C6.86631 2.05839 3.52304 -0.508771 1.37378 0.0882453C-0.775479 0.685261 0.239433 3.31213 0.239433 3.31213Z" transform="translate(216.633 138.585)" fill="#0CB0EA"/>
<path d="M0.239442 3.31214C0.239442 3.31214 1.37377 5.40169 4.12005 3.73005C6.86632 2.0584 3.52303 -0.508771 1.37377 0.0882451C-0.775489 0.685261 0.239442 3.31214 0.239442 3.31214Z" transform="translate(175.319 102.406)" fill="#0CB0EA"/>
<path d="M0.239442 3.31213C0.239442 3.31213 1.37377 5.40168 4.12005 3.73004C6.86632 2.05839 3.52303 -0.508771 1.37377 0.0882453C-0.775489 0.685261 0.239442 3.31213 0.239442 3.31213Z" transform="translate(199.737 126.227)" fill="#0CB0EA"/>
<path d="M0.261344 3.31213C0.261344 3.31213 1.39568 5.40168 4.14195 3.73004C6.88822 2.05839 3.54494 -0.508771 1.39568 0.0882453C-0.813279 0.685261 0.261344 3.31213 0.261344 3.31213Z" transform="translate(139.238 112.495)" fill="#0CB0EA"/>
<path d="M0.438724 0.523454C0.438724 0.523454 -0.815017 1.71748 0.91633 3.32943C2.64768 4.94137 3.782 2.01599 2.94618 0.642855C2.11036 -0.730282 0.438724 0.523454 0.438724 0.523454Z" transform="translate(194.822 92.4184)" fill="#0CB0EA"/>
<path d="M0.438724 0.523454C0.438724 0.523454 -0.815017 1.71748 0.91633 3.32943C2.64768 4.94137 3.78202 2.01599 2.9462 0.642855C2.11038 -0.730282 0.438724 0.523454 0.438724 0.523454Z" transform="translate(170.881 142.866)" fill="#0CB0EA"/>
<path d="M0.438719 0.523454C0.438719 0.523454 -0.815013 1.71748 0.916333 3.32943C2.64768 4.94137 3.78202 2.01599 2.94619 0.642855C2.11037 -0.730282 0.438719 0.523454 0.438719 0.523454Z" transform="translate(122.761 123.344)" fill="#0CB0EA"/>
<path d="M0.438713 0.523454C0.438713 0.523454 -0.81501 1.71748 0.916337 3.32943C2.64768 4.94137 3.78201 2.01599 2.94619 0.642855C2.11037 -0.730282 0.438713 0.523454 0.438713 0.523454Z" transform="translate(211.12 91.702)" fill="#0CB0EA"/>
<path d="M0.438719 0.523454C0.438719 0.523454 -0.815013 1.71748 0.916333 3.32943C2.64768 4.94137 3.78202 2.01599 2.94619 0.642855C2.11037 -0.730282 0.438719 0.523454 0.438719 0.523454Z" transform="translate(133.508 100.478)" fill="#0CB0EA"/>
<path d="M0.438719 0.523454C0.438719 0.523454 -0.815013 1.71748 0.916333 3.32943C2.64768 4.94137 3.78201 2.01599 2.94618 0.642855C2.11036 -0.730282 0.438719 0.523454 0.438719 0.523454Z" transform="translate(110.403 120.18)" fill="#0CB0EA"/>
<path d="M2.27107 0.0404206C2.27107 0.0404206 0.599416 -0.437198 0.0621018 1.89117C-0.475213 4.21953 2.62927 3.74191 3.4054 2.30907C4.18152 0.876236 2.27107 0.0404206 2.27107 0.0404206Z" transform="translate(111.496 134.036)" fill="#0CB0EA"/>
<path d="M0.26134 3.31214C0.26134 3.31214 1.39567 5.40169 4.14194 3.73005C6.88822 2.0584 3.54494 -0.508771 1.39568 0.0882451C-0.813274 0.685261 0.26134 3.31214 0.26134 3.31214Z" transform="translate(192.432 79.5402)" fill="#0CB0EA"/>
<path d="M3.33529 0.0621211C3.21588 -0.0572821 2.97708 0.00241771 2.85767 0.181523C2.49946 0.897942 1.30543 2.9278 0.230805 4.89795C-0.903525 6.98751 2.49946 6.8681 2.73827 5.97258C3.03678 4.65915 4.05171 0.77854 3.33529 0.0621211Z" transform="translate(76.0442 67.3873)" fill="#D6D6D6"/>
<path d="M9.4216 4.52606C3.39173 4.52606 0.287246 0.943965 0.108141 0.76486C-0.0709634 0.585755 -0.0112582 0.287248 0.167847 0.108143C0.346951 -0.0709617 0.645459 -0.011261 0.824563 0.167844C0.884265 0.227545 4.70517 4.64546 12.1082 3.39173C12.347 3.33203 12.5858 3.51114 12.6455 3.74994C12.7052 3.98875 12.5261 4.22755 12.2873 4.28726C11.2723 4.40666 10.3171 4.52606 9.4216 4.52606Z" transform="translate(69.5398 74.8038)" fill="#BCBCBC"/>
<path d="M6.49461 2.94926C6.31551 2.94926 6.19611 2.82985 6.0767 2.71045C6.017 2.59105 4.58416 -0.155223 0.643859 1.33732C0.405053 1.45672 0.166246 1.33732 0.0468431 1.09851C-0.0725601 0.859703 0.0468395 0.620897 0.285646 0.501493C4.94237 -1.28955 6.79312 2.29254 6.79312 2.29254C6.91252 2.53135 6.79312 2.77015 6.61402 2.88956C6.61402 2.94926 6.55431 2.94926 6.49461 2.94926Z" transform="translate(68.4668 58.8284)" fill="#212121"/>
<path d="M6.22054 3.3372C6.04144 3.3372 5.92203 3.2775 5.80262 3.09839C4.31008 0.411819 0.608592 0.949134 0.548891 0.949134C0.310084 1.00884 0.0712725 0.829727 0.0115709 0.590921C-0.0481307 0.352115 0.130978 0.113312 0.369784 0.0536103C0.548889 0.0536103 4.7877 -0.603111 6.51905 2.68048C6.63845 2.91928 6.57875 3.15809 6.33994 3.27749C6.33994 3.33719 6.28024 3.3372 6.22054 3.3372Z" transform="translate(85.756 65.4854)" fill="#212121"/>
<path d="M0.254333 0C0.0752284 0 -0.0441711 0.238809 0.0155305 0.417914C0.314038 1.13433 0.911058 3.46269 1.56778 5.55225C2.2842 7.82091 4.55286 5.25374 4.07525 4.47762C3.35883 3.34329 1.26926 0 0.254333 0Z" transform="translate(156.618 52.0463)" fill="#D6D6D6"/>
<path d="M2.22052 7.15133C1.08619 7.15133 0.369784 7.03193 0.369784 7.03193C0.130978 6.97223 -0.0481307 6.73342 0.0115709 6.49462C0.0712725 6.25581 0.310075 6.07671 0.548882 6.13641C0.907091 6.19611 9.08621 7.50954 12.1907 0.28565C12.3101 0.0468432 12.5489 -0.0725609 12.7877 0.0468423C13.0265 0.166246 13.1459 0.405052 13.0265 0.643858C10.519 6.31551 5.1459 7.15133 2.22052 7.15133Z" transform="translate(154.651 57.0144)" fill="#BCBCBC"/>
<path d="M0.464751 4.24327C0.405049 4.24327 0.345355 4.24327 0.285653 4.18357C0.0468469 4.06416 -0.0725617 3.82536 0.0468415 3.58655C2.01699 -1.01047 5.8379 0.123854 5.8976 0.123854C6.13641 0.183555 6.25581 0.422363 6.19611 0.661169C6.13641 0.899976 5.8976 1.01938 5.6588 0.959677C5.53939 0.899976 2.55431 0.0641539 0.882669 3.88506C0.822968 4.12386 0.643856 4.24327 0.464751 4.24327Z" transform="translate(143.631 50.3702)" fill="#212121"/>
<path d="M0.420332 3.46701C0.36063 3.46701 0.241231 3.46701 0.181529 3.40731C0.00242421 3.28791 -0.0572847 2.9894 0.0621185 2.8103C0.181522 2.69089 2.62928 -0.831504 6.21138 0.183424C6.45018 0.243125 6.56959 0.481933 6.50988 0.720739C6.45018 0.959545 6.21138 1.07895 5.97257 1.01925C2.98749 0.183425 0.778545 3.2282 0.778545 3.28791C0.659142 3.40731 0.539735 3.46701 0.420332 3.46701Z" transform="translate(160.213 43.0271)" fill="#212121"/>
<defs>
<linearGradient id="paint0_linear" x2="1" gradientUnits="userSpaceOnUse" gradientTransform="translate(73.4969 0.0184749) scale(73.4458) rotate(90)">
<stop stop-color="#70C7F6"/>
<stop offset="0.3612" stop-color="#6EC6F5"/>
<stop offset="0.5398" stop-color="#66C2F3"/>
<stop offset="0.6783" stop-color="#59BCEE"/>
<stop offset="0.7962" stop-color="#46B4E8"/>
<stop offset="0.8999" stop-color="#2EA9E0"/>
<stop offset="0.9941" stop-color="#119BD7"/>
<stop offset="1" stop-color="#0F9AD6"/>
</linearGradient>
<linearGradient id="paint1_linear" x2="1" gradientUnits="userSpaceOnUse" gradientTransform="translate(2.18353 39.3666) scale(39.3922) rotate(-90)">
<stop stop-color="#ED8D37"/>
<stop offset="0.2791" stop-color="#EB8931"/>
<stop offset="0.6427" stop-color="#E77C21"/>
<stop offset="1" stop-color="#E06A0A"/>
</linearGradient>
<linearGradient id="paint2_linear" x2="1" gradientUnits="userSpaceOnUse" gradientTransform="translate(66.6514 0.0184776) scale(68.8314) rotate(90)">
<stop stop-color="#DD4384"/>
<stop offset="0.3864" stop-color="#DE4586"/>
<stop offset="0.5742" stop-color="#E04D8B"/>
<stop offset="0.7192" stop-color="#E45A95"/>
<stop offset="0.8423" stop-color="#E96CA2"/>
<stop offset="0.9504" stop-color="#F084B4"/>
<stop offset="1" stop-color="#F492BE"/>
</linearGradient>
<linearGradient id="paint3_linear" x2="1" gradientUnits="userSpaceOnUse" gradientTransform="translate(5.82347 37.7225) scale(34.2166) rotate(-120)">
<stop offset="0.3406" stop-color="white"/>
<stop offset="0.4497" stop-color="#F5F6F6"/>
<stop offset="0.6325" stop-color="#DBDCDD"/>
<stop offset="0.8652" stop-color="#B2B3B4"/>
<stop offset="1" stop-color="#96989A"/>
</linearGradient>
<linearGradient id="paint4_linear" x2="1" gradientUnits="userSpaceOnUse" gradientTransform="translate(-9.49993 14.6808) scale(23.6248) rotate(-44.9999)">
<stop offset="0.3406" stop-color="white"/>
<stop offset="0.4497" stop-color="#F5F6F6"/>
<stop offset="0.6325" stop-color="#DBDCDD"/>
<stop offset="0.8652" stop-color="#B2B3B4"/>
<stop offset="1" stop-color="#96989A"/>
</linearGradient>
<linearGradient id="paint5_linear" x2="1" gradientUnits="userSpaceOnUse" gradientTransform="translate(7.42719 -0.00820956) scale(7.22013) rotate(90)">
<stop stop-color="#ED8D37"/>
<stop offset="0.2791" stop-color="#EB8931"/>
<stop offset="0.6427" stop-color="#E77C21"/>
<stop offset="1" stop-color="#E06A0A"/>
</linearGradient>
<linearGradient id="paint6_linear" x2="1" gradientUnits="userSpaceOnUse" gradientTransform="translate(0.439888 -0.0346977) scale(-7.08973 7.08974) rotate(89.9977)">
<stop stop-color="#ED8D37"/>
<stop offset="0.2791" stop-color="#EB8931"/>
<stop offset="0.6427" stop-color="#E77C21"/>
<stop offset="1" stop-color="#E06A0A"/>
</linearGradient>
</defs>
</svg>
