<svg width="227" height="200" viewBox="0 0 227 200" fill="none" xmlns="http://www.w3.org/2000/svg">
<path d="M0 38.0648C0 38.0648 99.3163 59.0049 72.7912 18.0417C47.2352 -21.4439 143.236 10.5522 150.836 50.1397C164.303 120.144 85.3396 129.519 85.3396 129.519L0 38.0648Z" transform="translate(50.5084 16.0128)" fill="#A9E5FF"/>
<path d="M170.433 90.9925C170.433 90.9925 175.789 65.4669 152.069 38.0053C128.605 10.8494 88.9699 -8.817 50.0494 4.0222C10.9247 16.9123 -0.96057 58.6907 0.0596289 85.5409C0.0596289 85.5409 1.74296 154.475 55.5074 138.885C119.474 120.288 170.433 90.9925 170.433 90.9925Z" transform="translate(0 44.2981)" fill="url(#paint0_linear)"/>
<path d="M7.45365 12.9551C2.30165 12.9551 0.26125 9.79624 0.159231 9.69435C-0.146829 9.2358 0.00619998 8.57347 0.465289 8.26777C0.924379 7.96208 1.58751 8.11493 1.89357 8.57347C1.99559 8.67537 3.78094 11.3247 8.52486 10.8662C9.03496 10.8152 9.49405 10.6624 9.90213 10.4076C6.12739 8.67537 4.54609 6.07696 4.69911 3.88614C4.85214 1.74627 6.63749 0.268743 9.18799 0.0139973C11.6365 -0.189799 13.4728 1.84818 13.7789 5.05798C13.9319 6.53551 13.6769 8.11492 13.1158 9.4396C13.4218 9.5415 13.7279 9.59245 14.0849 9.69435C15.9723 10.1529 18.4208 10.3567 19.2369 8.87917C20.2571 7.045 18.8289 3.42761 17.7066 2.25577C17.2986 1.84818 17.3496 1.18583 17.7066 0.829188C18.1147 0.421594 18.7779 0.472543 19.1349 0.829188C20.6142 2.35766 22.6036 6.9431 20.9713 9.8472C20.1551 11.2738 18.2167 12.7513 13.5748 11.6304C13.0137 11.4776 12.4526 11.3757 11.9935 11.1719C11.1774 12.089 10.0552 12.7004 8.67789 12.8532C8.26981 12.9042 7.81072 12.9551 7.45365 12.9551ZM9.49405 2.00103C9.44304 2.00103 9.39203 2.00103 9.34102 2.00103C7.75971 2.15388 6.79052 2.86716 6.6885 3.98804C6.58648 5.51652 8.06577 7.40163 11.1264 8.72631C11.6365 7.60543 11.7895 6.28076 11.6875 5.21082C11.5855 3.7333 10.9223 2.00103 9.49405 2.00103Z" transform="translate(55.6543 162.178)" fill="#A52861"/>
<path d="M15.3671 68.619C19.7029 65.2054 38.2705 36.2153 50.1559 26.0255C62.0412 15.8356 54.8998 4.27014 66.8361 3.25116C78.7724 2.23218 84.1795 -3.52508 89.2805 3.25116C94.3815 10.0274 107.644 26.6878 107.644 26.6878C107.644 26.6878 103.563 27.7068 99.1254 26.0255C94.6875 24.3441 90.6067 16.498 88.2603 15.479C85.9138 14.46 83.5164 22.2552 83.5164 22.2552C90.6577 20.2172 94.0754 25.6688 94.0754 25.6688C94.0754 25.6688 90.3517 26.3311 79.1295 33.8207C67.9073 41.3102 65.2038 32.445 58.7255 48.4431C58.7255 48.4431 34.4958 86.9607 24.957 100.564C15.4181 114.168 -19.9828 96.4882 15.3671 68.619Z" transform="translate(12.4419 73.2441)" fill="white"/>
<path d="M123.685 25.7281C123.175 23.3335 121.288 21.4993 118.89 21.0408C115.677 20.3784 110.168 18.6971 101.598 14.2136C85.9378 6.06173 62.8303 -6.82842 34.6219 4.3804C6.41337 15.5892 -5.82902 41.0638 2.63863 63.1248C11.1063 85.1858 48.9046 94.3567 81.1939 79.4286C110.474 65.8761 110.984 53.7502 123.736 47.5344C126.287 46.3116 127.613 43.4584 127.001 40.6562L123.685 25.7281Z" transform="translate(70.8752 107.117)" fill="url(#paint1_linear)"/>
<path d="M24.6603 4.90727C24.6603 4.90727 27.7209 14.3329 31.6486 26.1531C34.5052 34.7125 3.74619 17.7465 0.430543 11.3269C-2.8851 4.90727 13.6931 -6.60726 24.6603 4.90727Z" transform="translate(137.764 158.202)" fill="#DD4384"/>
<path d="M12.5257 11.9503C12.5257 11.9503 5.12928 4.66454 2.68081 0.894294C0.232331 -2.87595 -1.29798 5.88732 1.50757 15.7205C4.2111 25.5028 12.5257 11.9503 12.5257 11.9503Z" transform="translate(147.909 103.317)" fill="#DD4384"/>
<path d="M8.26361 16.5075C12.8275 16.5075 16.5272 12.8122 16.5272 8.25377C16.5272 3.69534 12.8275 0 8.26361 0C3.69974 0 0 3.69534 0 8.25377C0 12.8122 3.69974 16.5075 8.26361 16.5075Z" transform="translate(101.672 96.6202)" fill="#FFD712"/>
<path d="M26.6602 0.0839629L1.25729 7.6754C0.339107 7.98109 -0.221996 8.94913 0.0840637 9.91716C0.390123 10.8342 1.35931 11.3947 2.3285 11.089L27.7314 3.49756C28.6496 3.19186 29.2107 2.22383 28.9047 1.2558C28.5986 0.338711 27.5784 -0.221732 26.6602 0.0839629Z" transform="translate(99.9551 112.381)" fill="#A52861"/>
<path d="M26.3388 4.85785C26.3388 4.85785 30.0115 14.8948 34.7044 27.4283C38.1221 36.4973 4.3535 19.4803 0.527758 12.755C-3.24698 5.97874 14.0454 -7.11521 26.3388 4.85785Z" transform="translate(83.0353 169.969)" fill="#DD4384"/>
<path d="M54.1814 38.9992C54.3344 39.3049 54.2834 39.6105 54.0283 39.8143C51.6309 41.7504 35.4607 53.8763 21.688 41.19C6.79315 27.4337 -0.756321 28.5546 0.0598379 19.5875C0.927007 10.6204 5.97699 4.1499 8.47648 0.532509C10.5679 -2.47349 9.95577 7.92015 15.2608 14.8492C15.8219 15.5625 16.9951 14.9002 16.6381 14.085C15.8219 12.1489 15.3118 9.80526 15.9749 7.3597C16.179 6.64641 17.0972 6.54452 17.4542 7.20686C19.0355 10.1619 22.8103 16.5306 27.9113 19.9442C33.6244 23.7144 33.6754 30.3378 33.5734 32.2739C33.5734 32.6305 33.7774 32.9362 34.0835 33.0381C36.736 34.0571 48.0092 37.4197 50.3556 37.8273C52.9061 38.2349 53.9263 38.3878 54.1814 38.9992Z" transform="translate(95.0823 149.024)" fill="white"/>
<path d="M63.0455 11.7183C59.5258 9.11991 52.0273 3.66834 46.1612 0C34.0208 11.9221 17.6976 30.9771 14.0249 33.8812C-21.325 61.7504 20.1461 87.8874 29.685 74.2839C39.2238 60.6805 60.648 16.8642 60.648 16.8642C61.5152 14.7753 62.2803 13.043 63.0455 11.7183Z" transform="translate(10.5194 104.772)" fill="#210784"/>
<path d="M0 7.74427C13.2626 17.4246 27.8514 6.4196 30.1469 4.58543C30.4019 4.38163 30.4019 4.07593 30.2999 3.77024C30.0449 3.15885 29.0247 3.006 26.4231 2.54746C25.0969 2.29271 21.0161 1.17183 17.1903 0C12.9565 3.006 6.83533 6.47054 0 7.74427Z" transform="translate(118.964 184.253)" fill="#210784"/>
<path d="M1.00494 5.82198C0.902924 5.82198 0.851914 5.82198 0.749894 5.77103C0.239794 5.61819 -0.117288 5.1087 0.0357423 4.54825C0.0867522 4.39541 0.902921 1.33846 3.50443 0.319477C5.23876 -0.342863 7.22814 0.0137752 9.47258 1.4913C9.93167 1.797 10.0847 2.40839 9.77864 2.86694C9.47258 3.32548 8.86047 3.47832 8.40138 3.17263C6.71806 2.10269 5.34078 1.797 4.21856 2.2046C2.58625 2.86694 1.92312 5.05775 1.92312 5.05775C1.87211 5.51629 1.46403 5.82198 1.00494 5.82198Z" transform="translate(160.552 125.851)" fill="#A52861"/>
<path d="M0.0534138 8.42389L1.88977 0.883408C2.0428 0.272018 2.65492 -0.0846248 3.26704 0.0172736C3.82815 0.119172 4.13421 0.628662 4.13421 1.13815L3.67512 8.83149C3.62411 9.85047 2.75694 10.6147 1.73674 10.5638C0.716544 10.5128 -0.0486014 9.69762 0.00240851 8.67864C0.0534184 8.62769 0.0534138 8.52579 0.0534138 8.42389Z" transform="translate(105.903 115.505)" fill="#A9E5FF"/>
<path d="M3.6424 1.80516L3.38735 9.54943C3.38735 10.1608 2.82624 10.6703 2.21412 10.6703C1.65301 10.6703 1.24493 10.2627 1.14291 9.75323L0.0206954 2.11085C-0.132334 1.14281 0.581805 0.174781 1.55099 0.0219337C2.57119 -0.130914 3.48937 0.531423 3.6424 1.49946C3.6424 1.60136 3.6424 1.70326 3.6424 1.80516Z" transform="translate(107.619 81.5682)" fill="#A9E5FF"/>
<path d="M8.16796 2.72488L1.53667 10.5201C1.23061 10.8767 0.669506 10.9277 0.312437 10.622C-0.0446327 10.3163 -0.0956442 9.85776 0.159405 9.50112L5.51545 0.788809C5.97454 0.0245706 6.99474 -0.230178 7.81089 0.228364C8.57604 0.686907 8.8311 1.70589 8.37201 2.52108C8.26999 2.62298 8.21897 2.67393 8.16796 2.72488Z" transform="translate(117.427 82.9412)" fill="#A9E5FF"/>
<path d="M7.45404 10.1049L0.414662 2.56444C-0.146447 1.95305 -0.146444 0.985019 0.465675 0.424578C0.975775 -0.0849144 1.79193 -0.135865 2.35304 0.271728L10.6166 6.38563C11.6879 7.20082 11.9429 8.7293 11.1267 9.79924C10.3616 10.9201 8.8313 11.1239 7.76009 10.3597C7.65807 10.3087 7.55606 10.2068 7.45404 10.1049Z" transform="translate(118.192 111.276)" fill="#A9E5FF"/>
<path d="M0.730683 3.01508L6.39278 0.110975C6.85187 -0.143771 7.41298 0.0600272 7.66803 0.51857C7.87207 0.926164 7.77005 1.3847 7.41298 1.63945L2.414 5.46064C1.75088 5.97013 0.832701 5.81729 0.322602 5.20589C-0.187498 4.54356 -0.0854778 3.62647 0.577651 3.11697C0.577651 3.11697 0.628663 3.06603 0.730683 3.01508Z" transform="translate(93.1874 108.686)" fill="#A9E5FF"/>
<path d="M14.8949 8.81421C14.8949 8.81421 11.7323 4.84017 7.90654 0L0 2.39461C1.88737 4.73827 4.08079 7.23478 6.37624 8.10092C10.8141 9.83319 14.8949 8.81421 14.8949 8.81421Z" transform="translate(105.242 91.1177)" fill="white"/>
<path d="M5.8502 6.75876C5.59515 7.2173 5.18708 7.57395 4.62597 7.87965L4.83 8.49104C4.88101 8.64388 4.88101 8.79673 4.83 8.89863C4.77899 9.00053 4.67698 9.10243 4.52395 9.15338C4.37092 9.20433 4.21789 9.20432 4.11587 9.10243C4.01385 9.05148 3.91183 8.94957 3.86082 8.79673L3.65677 8.18534C3.2997 8.28724 2.89163 8.28724 2.53456 8.28724C2.12648 8.28724 1.82042 8.18534 1.51436 8.08344C1.41234 8.03249 1.31032 7.98154 1.25931 7.93059C1.2083 7.87964 1.15729 7.77774 1.10628 7.67585C1.05527 7.523 1.05527 7.4211 1.10628 7.26825C1.15729 7.16635 1.2083 7.06445 1.31032 7.0135C1.36133 7.0135 1.41234 6.96256 1.51436 7.0135C1.56537 7.0135 1.66739 7.01351 1.76941 7.06446C2.12648 7.16636 2.48355 7.21731 2.78961 7.21731C3.09567 7.21731 3.40173 7.16636 3.70779 7.06446C4.11587 6.91161 4.42193 6.75876 4.62597 6.50401C4.83001 6.24927 4.83001 5.99453 4.779 5.68883C4.72799 5.48503 4.62596 5.38313 4.42192 5.28123C4.26889 5.23029 4.06486 5.17934 3.86082 5.17934C3.65678 5.17934 3.35072 5.17934 2.99365 5.17934C2.48355 5.23029 2.02446 5.17934 1.7184 5.17934C1.36133 5.12839 1.05527 5.02649 0.749209 4.8227C0.44315 4.6189 0.239109 4.3132 0.0860788 3.90561C-0.066951 3.39612 -0.0159395 2.88662 0.23911 2.42808C0.49416 1.96953 0.902239 1.56194 1.51436 1.3072L1.31032 0.695806C1.25931 0.542959 1.25931 0.390109 1.31032 0.288211C1.36133 0.186313 1.46335 0.0844143 1.61638 0.033465C1.76941 -0.0174842 1.92244 -0.0174811 2.02446 0.0844174C2.12648 0.135367 2.2285 0.23726 2.27951 0.390108L2.48355 1.0015C3.14668 0.899606 3.80981 0.950552 4.37092 1.2053C4.57496 1.25625 4.67698 1.40909 4.72799 1.56194C4.779 1.71479 4.779 1.81669 4.72799 1.96954C4.67698 2.12238 4.57496 2.17333 4.47294 2.22428C4.42193 2.22428 4.37091 2.27523 4.3199 2.22428C4.26889 2.22428 4.16687 2.22428 4.06486 2.17333C3.7588 2.07143 3.45274 2.02049 3.19769 1.96954C2.94264 1.96954 2.63658 1.96953 2.33052 2.07143C1.92244 2.17333 1.61638 2.37713 1.46335 2.63188C1.31032 2.88662 1.25931 3.14137 1.31032 3.44706C1.36133 3.65086 1.51436 3.80371 1.66739 3.90561C1.82042 4.00751 2.02446 4.05846 2.27951 4.05846C2.48355 4.05846 2.78961 4.05846 3.19769 4.05846C3.70779 4.00751 4.11587 4.00751 4.47294 4.05846C4.83001 4.10941 5.13607 4.2113 5.39112 4.36415C5.69718 4.56794 5.90121 4.87364 6.00323 5.28123C6.10525 5.84168 6.05424 6.30022 5.8502 6.75876Z" transform="translate(106.992 100.204)" fill="black"/>
<path d="M10.202 0C10.202 0 5.10099 4.58543 0 10.1898" transform="translate(45.3054 107.014)" stroke="white" stroke-width="2" stroke-miterlimit="10" stroke-linecap="round" stroke-linejoin="round"/>
<path d="M2.80555 0L0 3.05695" transform="translate(39.1842 120.261)" stroke="white" stroke-width="2" stroke-miterlimit="10" stroke-linecap="round" stroke-linejoin="round"/>
<path d="M12.2424 0C12.2424 0 1.37727 9.5275 0 15.2848" transform="translate(12.302 138.653)" stroke="white" stroke-width="2" stroke-miterlimit="10" stroke-linecap="round" stroke-linejoin="round"/>
<path opacity="0.4" d="M0 0.957019C19.1287 38.3537 61.671 22.9161 69.4245 19.7063C49.8367 5.54245 25.1479 -2.96607 0 0.957019Z" transform="translate(62.6997 44.3063)" fill="black"/>
<path d="M17.6511 0C17.6511 0 16.0698 6.77624 3.31731 17.8322C-6.22155 26.1369 6.73497 42.5426 17.9061 32.7603C29.0773 22.9781 33.9233 20.3797 33.9233 20.3797L17.6511 0Z" transform="translate(118.248 48.4222)" fill="url(#paint2_linear)"/>
<path d="M64.4865 35.8741C64.4865 35.8741 48.1123 56.2537 35.921 63.8452C21.7912 72.7103 6.99831 67.004 3.58065 59.7183C-1.2653 49.3756 -2.03043 31.7981 6.59025 11.9789C15.2109 -7.84036 38.9816 1.99284 48.6734 6.01783C58.3653 10.0428 74.9436 19.927 64.4865 35.8741Z" transform="translate(135.838 14.4843)" fill="white"/>
<path d="M6.2232 39.2514C6.2232 39.2514 19.2817 28.1954 29.1267 35.2773C38.9716 42.3593 36.4721 60.5991 58.0493 60.5991C79.6265 60.5991 93.7563 45.62 89.4204 34.8697C85.0846 24.1194 78.1472 19.7888 61.773 18.3622C45.3988 16.9356 47.5923 0.479022 31.8812 0.020479C16.1702 -0.438064 10.8651 6.89862 6.68229 12.503C2.49947 18.1074 0 34.3093 0 34.3093L6.2232 39.2514Z" transform="translate(136.052)" fill="#212121"/>
<path d="M11.6977 3.63503C11.6977 3.63503 8.38203 -2.63172 3.17902 1.29136C-2.024 5.21445 0.0673997 14.2325 3.02598 15.4043C5.98455 16.5761 14.9623 13.7739 11.6977 3.63503Z" transform="translate(132.822 33.0179)" fill="white"/>
<path d="M12.7015 0C12.7015 0 8.92674 3.61739 4.33584 8.25377C1.07121 11.5145 0 5.96105 0 5.96105" transform="translate(158.445 60.2424)" stroke="#BCBCBC" stroke-miterlimit="10" stroke-linecap="round" stroke-linejoin="round"/>
<path d="M8.99687 12.1259C8.99687 12.1259 8.1297 9.5275 0.733255 0C0.733255 0 -0.950069 5.70631 0.784268 8.86516C2.51861 12.1259 5.57921 13.4506 8.99687 12.1259Z" transform="translate(147.204 61.7199)" fill="#BCBCBC"/>
<path d="M8.7737 7.28574C8.11057 7.38764 7.49845 6.98004 7.2434 6.21581C7.03936 5.70631 6.83533 5.14587 6.52927 4.68733C6.07018 3.87214 5.45806 3.15885 4.79493 2.54746C4.74392 2.49651 4.74391 2.49651 4.6929 2.44556C4.33584 2.19082 4.02978 1.93607 3.67271 1.73227C3.31564 1.47753 2.90756 1.32468 2.49948 1.17183C2.14241 1.01899 1.73434 0.917089 1.32626 0.81519C1.27525 0.81519 1.22423 0.764238 1.17322 0.764238L0 0.560444L0.051013 0.101901C0.459093 0.0509515 0.918182 0.0509492 1.32626 0C1.37727 0 1.42828 0 1.47929 0C1.88736 0 2.34646 2.33075e-06 2.80555 0.101901C3.26464 0.203799 3.77473 0.254748 4.23382 0.407595C4.69291 0.509494 5.152 0.764239 5.61109 0.968036C5.6621 0.968036 5.66209 1.01898 5.7131 1.01898C6.63128 1.52848 7.49845 2.29272 8.2636 3.2098C8.67168 3.66834 9.02875 4.22878 9.33481 4.84017C9.48784 5.14587 9.64087 5.45157 9.7939 5.80821C9.84491 5.96106 9.94694 6.16485 9.99795 6.3177C10.049 6.4196 10.049 6.5215 10.1 6.6234C10.151 6.72529 10.151 6.82719 10.202 7.03099L8.7737 7.28574Z" transform="translate(160.486 43.9387)" fill="#191919"/>
<path d="M0.00554213 1.06993C-0.0454678 1.57942 0.260589 2.08892 0.719678 2.29271C1.07675 2.44556 1.43382 2.59841 1.73988 2.80221C2.30099 3.15885 2.76007 3.61739 3.16815 4.12688C3.16815 4.17783 3.21916 4.17783 3.21916 4.22878C3.4232 4.48353 3.57623 4.73828 3.72926 5.04397C3.88229 5.34967 4.03531 5.65536 4.13733 5.96106C4.23935 6.26675 4.34138 6.57244 4.4434 6.87814C4.4434 6.92909 4.4434 6.92909 4.49441 6.98004L4.69845 7.94807L5.00451 7.89712C5.00451 7.54048 5.00451 7.23478 5.00451 6.87814C5.00451 6.82719 5.00451 6.82719 5.00451 6.77624C4.9535 6.4196 4.95349 6.06295 4.90248 5.70631C4.85147 5.34966 4.74945 4.94207 4.64743 4.58543C4.54541 4.22878 4.39239 3.87214 4.23936 3.5155C4.23936 3.46455 4.23936 3.46454 4.18835 3.41359C3.83128 2.70031 3.32118 1.98702 2.65805 1.42658C2.35199 1.12088 1.94391 0.866135 1.58684 0.611389C1.3828 0.50949 1.17877 0.356644 0.974728 0.254746C0.872708 0.203797 0.770682 0.152846 0.617652 0.101897C0.566642 0.101897 0.515635 0.0509484 0.413615 0.0509484C0.362605 0.0509484 0.311595 0 0.158566 0L0.00554213 1.06993Z" transform="translate(177.109 58.8159)" fill="#191919"/>
<path d="M5.87603 6.32757C5.82502 6.32757 5.723 6.32757 5.67199 6.27662C5.46795 6.17473 0.775035 4.13676 0.00988633 0.468414C-0.0411236 0.264618 0.111909 0.0608239 0.315949 0.00987475C0.519989 -0.0410745 0.724025 0.111772 0.775035 0.315569C1.48917 3.57632 5.92705 5.56333 5.97806 5.56333C6.1821 5.66523 6.28411 5.86903 6.18209 6.07283C6.13108 6.22567 5.97805 6.32757 5.87603 6.32757Z" transform="translate(158.282 48.5652)" fill="#212121"/>
<path d="M5.87603 6.32758C5.82502 6.32758 5.723 6.32758 5.67199 6.27663C5.46795 6.17473 0.775035 4.13676 0.00988633 0.468418C-0.0411236 0.264621 0.111909 0.0608238 0.315949 0.00987456C0.519989 -0.0410746 0.724025 0.111776 0.775035 0.315573C1.48917 3.57632 5.92703 5.56334 5.97804 5.56334C6.18208 5.66524 6.28411 5.86904 6.18209 6.07283C6.13108 6.22568 6.02906 6.32758 5.87603 6.32758Z" transform="translate(171.188 63.7991)" fill="#212121"/>
<defs>
<linearGradient id="paint0_linear" x2="1" gradientUnits="userSpaceOnUse" gradientTransform="translate(14.8101 141.179) scale(141.347 141.179) rotate(-90)">
<stop stop-color="#100749"/>
<stop offset="0.1753" stop-color="#120750"/>
<stop offset="0.4283" stop-color="#170763"/>
<stop offset="0.7272" stop-color="#200782"/>
<stop offset="0.7423" stop-color="#210784"/>
</linearGradient>
<linearGradient id="paint1_linear" x2="1" gradientUnits="userSpaceOnUse" gradientTransform="translate(27.7422 91.5508) scale(86.0686 85.9661) rotate(-100)">
<stop stop-color="#C4236C"/>
<stop offset="0.0327389" stop-color="#CC2D73"/>
<stop offset="0.098556" stop-color="#D6397D"/>
<stop offset="0.1855" stop-color="#DB4182"/>
<stop offset="0.3743" stop-color="#DD4384"/>
<stop offset="0.6018" stop-color="#DE4586"/>
<stop offset="0.7221" stop-color="#E04D8B"/>
<stop offset="0.8173" stop-color="#E45B95"/>
<stop offset="0.8993" stop-color="#E96EA3"/>
<stop offset="0.9722" stop-color="#F186B5"/>
<stop offset="1" stop-color="#F492BE"/>
</linearGradient>
<linearGradient id="paint2_linear" x2="1" gradientUnits="userSpaceOnUse" gradientTransform="translate(-2.67632 2.70047) scale(34.2825 34.2417) rotate(-6.7249)">
<stop offset="0.3406" stop-color="white"/>
<stop offset="0.4497" stop-color="#F5F6F6"/>
<stop offset="0.6325" stop-color="#DBDCDD"/>
<stop offset="0.8652" stop-color="#B2B3B4"/>
<stop offset="1" stop-color="#96989A"/>
</linearGradient>
</defs>
</svg>
