<svg width="204" height="210" viewBox="0 0 204 210" fill="none" xmlns="http://www.w3.org/2000/svg">
<path d="M61.6388 2.69321C61.6388 2.69321 95.2785 16.0068 103.968 45.378C114.131 79.5766 105.34 107.728 88.3676 130.087C71.3954 152.446 27.7451 123.633 27.7451 123.633L0 72.4625L13.5168 19.9704L16.5658 0L61.6388 2.69321Z" transform="translate(84.8455 28.8074)" fill="url(#paint0_linear)"/>
<path d="M0 31.7452C0 31.7452 4.675 16.2974 27.8975 6.54088C53.3052 -4.13031 53.8641 0.493874 50.5103 4.76235C47.1565 9.03083 41.0079 16.1958 33.2331 29.9159C20.2753 52.7827 2.84565 46.6849 2.84565 46.6849L0 31.7452Z" transform="translate(151.464 114.801)" fill="#63BBA6"/>
<path d="M18.5476 28.2024C26.3223 14.4823 32.4709 7.31739 35.8247 3.04891C36.6886 1.98179 37.2475 0.863859 37.2984 0C31.2514 1.93098 22.6636 6.91086 14.2283 17.0231C2.79484 30.7432 0 31.5054 0 31.5054L2.28668 43.9552C7.46984 41.8209 13.3644 37.3492 18.5476 28.2024Z" transform="translate(166.15 116.514)" fill="url(#paint1_linear)"/>
<path d="M140.996 58.4849C140.996 58.4849 150.397 53.9115 151.667 35.618C152.938 17.3246 144.096 6.90745 133.12 2.08C124.481 -1.73114 105.68 -1.22299 95.2626 11.4808C85.2012 23.7273 77.2232 52.133 53.8482 48.5759C14.5172 42.5797 -3.26811 78.4553 0.492212 109.3C4.50661 142.737 30.9813 160.471 61.1148 163.52C96.2789 167.077 122.957 85.417 122.957 85.417L115.69 64.5827L140.996 58.4849Z" transform="translate(0 14.3284)" fill="#212121"/>
<path d="M91.5109 3.94613C91.5109 3.94613 51.6209 -10.0281 23.1644 14.6173C-5.29211 39.2627 -5.80026 97.7002 12.2391 115.994C30.2785 134.287 45.0149 111.166 48.0639 101.765C48.0639 101.765 82.6182 110.658 119.967 91.3483C157.317 72.0385 136.736 40.7872 126.065 30.116C115.394 19.4448 101.166 8.77357 91.5109 3.94613Z" transform="translate(33.7327 87.1606)" fill="#70C7F6"/>
<path d="M91.5109 3.94613C91.5109 3.94613 51.6209 -10.0281 23.1644 14.6173C-5.29211 39.2627 -5.80026 97.7002 12.2391 115.994C30.2785 134.287 45.0149 111.166 48.0639 101.765C48.0639 101.765 82.6182 110.658 119.967 91.3483C157.317 72.0385 136.736 40.7872 126.065 30.116C115.394 19.4448 101.166 8.77357 91.5109 3.94613Z" transform="translate(33.7327 87.1606)" fill="url(#paint2_linear)"/>
<path d="M4.30039 10.1356C4.30039 10.1356 -3.83004 38.084 2.26779 51.8041C8.36561 65.5242 24.5249 64.9652 31.9947 60.1886C40.2267 54.9546 46.6295 44.944 54.0993 27.6669C64.364 3.78371 8.87376 -10.9527 4.30039 10.1356Z" transform="translate(93.2489 30.9182)" fill="white"/>
<path opacity="0.45" d="M124.294 10.7728C122.973 9.19755 121.702 7.77473 120.585 6.60598C118.349 4.37011 115.96 2.13424 113.521 0C112.708 0.762228 111.844 1.57527 110.98 2.38831C102.596 10.0106 98.4799 11.6875 97.2095 12.0432C88.1136 6.65679 75.2573 2.23587 55.5918 12.653C43.5995 19.0049 32.8266 17.7345 24.3405 8.99429C19.4622 3.96359 13.8217 1.98179 8.3337 1.72771C4.87826 6.80924 2.13424 12.4497 0 18.4967C2.9981 17.1247 9.14674 15.2446 13.3644 19.6655C21.2916 27.8467 30.8448 32.0136 41.1095 32.0136C48.122 32.0136 55.3886 30.0826 62.706 26.1698C75.3082 19.4622 82.5239 20.9867 90.0446 25.6109C99.2421 31.3022 110.93 22.6636 118.958 15.7019C120.839 14.025 122.617 12.3481 124.294 10.7728Z" transform="translate(39.2134 110.671)" fill="#0F9AD6"/>
<path d="M6.25026 0.592922C6.25026 0.592922 15.6511 5.67444 19.4622 4.14999C23.2734 2.62553 19.9704 -3.21822 26.0682 2.37145C32.166 7.96113 34.4527 8.72336 34.1986 12.5345C33.9446 16.3456 33.1823 29.0494 29.8793 35.4013C26.5763 41.7532 35.9772 76.0535 38.0098 83.1676C40.6522 92.3652 40.5505 108.728 29.3712 110.1C18.9541 111.37 13.6185 105.78 11.8399 98.4122C9.19755 87.5377 13.6185 62.2318 12.094 40.5845C10.5696 18.9372 9.65489 16.2948 0 6.43667C0 6.43667 1.52446 3.38776 3.55706 4.14999C5.58967 4.91222 12.0432 6.03015 12.0432 6.03015L6.25026 0.592922Z" transform="translate(140.844 75.2693)" fill="white"/>
<path d="M27.0337 49.9005H3.55706C2.18505 49.9005 1.0163 48.7826 1.0163 47.3598L0 2.54076C0 1.16875 1.11793 0 2.54076 0H26.0174C27.3894 0 28.5581 1.11793 28.5581 2.54076L29.5744 47.3598C29.5744 48.7826 28.4057 49.9005 27.0337 49.9005Z" transform="translate(88.25 85.9745)" fill="url(#paint3_linear)"/>
<path d="M26.2028 20.2574C25.0848 21.7819 22.8998 22.1376 21.3753 20.9688L1.40497 6.2324C-0.119489 5.11447 -0.475208 2.92941 0.693542 1.40496C1.81148 -0.119499 3.99653 -0.475203 5.52099 0.693547L25.4914 15.43C27.0158 16.5479 27.3207 18.7329 26.2028 20.2574Z" transform="translate(139.439 70.4937)" fill="#DD4384"/>
<path d="M39.8523 0.220552C39.8523 0.220552 42.6472 -1.04983 43.4094 2.50724C44.1716 6.0643 45.9502 21.5629 45.9502 21.5629C45.9502 21.5629 59.4162 6.57245 62.4651 3.77762C65.514 0.98278 65.514 6.82653 64.4977 8.35099C63.4814 9.87544 50.2695 25.12 50.2695 25.12C50.2695 25.12 64.1928 20.445 71.3578 18.514C71.3578 18.514 71.8659 23.3415 68.3089 24.6119C64.7518 25.8822 50.2695 32.7423 50.2695 32.7423C50.2695 32.7423 68.817 37.0616 74.4067 38.0779C79.9964 39.0942 69.8333 42.1431 65.26 41.3809C60.6866 40.6186 56.6214 40.8727 56.6214 40.8727C56.6214 40.8727 58.1458 49.7654 51.2858 54.8469C44.4257 59.9284 40.1064 88.9947 32.7382 100.072C25.1159 111.506 14.9529 113.284 7.07653 109.727C0.826261 106.932 -2.32428 101.089 1.99501 87.6227C6.3143 74.1567 21.6097 63.7904 30.7056 52.8143C36.8034 45.4461 39.0901 48.2409 39.3442 31.726C39.5983 15.211 39.8523 0.220552 39.8523 0.220552Z" transform="translate(44.993 98.5085)" fill="white"/>
<path d="M49.7989 18.2427C49.7989 18.2427 41.3128 41.262 0.660599 30.4383L0 17.9378L10.8236 0L43.7011 1.6769L61.334 19.9704L59.3014 35.8755L52.5429 44.6666C52.4921 44.6666 55.8967 26.0682 49.7989 18.2427Z" transform="translate(89.927 25.7584)" fill="#212121"/>
<path d="M35.3298 0C34.1102 1.21957 32.5858 2.48994 30.7056 4.77663C21.6097 15.7527 6.3143 26.119 1.99501 39.585C-2.32428 53.0511 0.826261 58.8948 7.07653 61.6897C14.9529 65.2467 25.1159 63.4682 32.7382 52.0348C38.9885 42.6848 43.0029 20.5294 48.2368 10.7728C39.6491 7.06332 36.4985 2.74402 35.3298 0Z" transform="translate(44.9423 146.546)" fill="#70C7F6"/>
<path d="M23.83 16.8371C23.83 16.8371 17.6306 17.8534 12.295 15.3127C8.22975 13.3817 3.14824 6.87734 0.556663 4.03169C-0.0531194 3.37109 -0.307195 2.35478 0.556663 2.10071C2.94498 1.38929 5.23166 1.59255 11.6344 0.0680984C17.0716 -1.2531 30.9442 17.0912 23.83 16.8371Z" transform="translate(148.926 70.7126)" fill="white"/>
<path d="M16.2609 5.08152C22.4095 5.08152 27.4402 10.1122 27.4402 16.2609C27.4402 22.4095 22.4095 27.4402 16.2609 27.4402C10.1122 27.4402 5.08152 22.4095 5.08152 16.2609C5.08152 10.1122 10.0614 5.08152 16.2609 5.08152ZM16.2609 0C7.26657 0 0 7.26657 0 16.2609C0 25.2552 7.26657 32.5217 16.2609 32.5217C25.2552 32.5217 32.5217 25.2552 32.5217 16.2609C32.5217 7.26657 25.2043 0 16.2609 0Z" transform="translate(113.81 48.4221)" fill="#DD4384"/>
<path d="M18.3732 69.4644C29.5525 68.0924 29.6542 51.7299 27.0118 42.5323C25.3349 36.5869 18.4748 11.7383 18.2207 0C12.936 1.88016 5.11041 0.813043 0.943564 0C2.31557 21.444 -1.69883 47.1057 0.892745 57.8277C2.62046 65.1451 7.95606 70.7348 18.3732 69.4644Z" transform="translate(151.842 115.905)" fill="#70C7F6"/>
<path d="M2.99809 5.9962C1.37201 5.9962 0 4.675 0 2.9981C0 1.37202 1.32119 0 2.99809 0C4.62418 0 5.99619 1.3212 5.99619 2.9981C5.99619 4.675 4.62418 5.9962 2.99809 5.9962Z" transform="translate(98.8705 95.731)" fill="#F492BE"/>
<path d="M0.528964 24.1142C0.427333 24.1142 0.376518 24.1142 0.274888 24.0634C0.0208115 23.9109 -0.0808197 23.606 0.0716259 23.4028C0.122441 23.3011 5.86456 12.4775 20.2453 0.129394C20.4485 -0.0738664 20.7534 -0.0230481 20.9567 0.180213C21.1599 0.383474 21.1091 0.739177 20.9059 0.891623C6.67761 13.1381 0.986302 23.7585 0.935487 23.8601C0.884672 24.0125 0.681409 24.1142 0.528964 24.1142Z" transform="translate(47.2214 159.222)" fill="white"/>
<path d="M0.508151 4.82744C0.355705 4.82744 0.254076 4.77663 0.152446 4.675C-0.0508152 4.47174 -0.0508152 4.16685 0.152446 3.96359L3.96359 0.152446C4.16685 -0.0508152 4.47174 -0.0508152 4.675 0.152446C4.87826 0.355706 4.87826 0.660595 4.675 0.863855L0.863855 4.675C0.762225 4.77663 0.609781 4.82744 0.508151 4.82744Z" transform="translate(71.3794 150.815)" fill="white"/>
<path d="M1.27822 15.3032C1.2274 15.3032 1.2274 15.3032 1.27822 15.3032C0.973328 15.3032 0.770067 15.0491 0.770067 14.7443C1.27822 8.03665 0.007839 0.71925 0.007839 0.61762C-0.0429762 0.363544 0.160278 0.058654 0.414355 0.00783877C0.668431 -0.0429764 0.973328 0.160286 1.02414 0.414362C1.02414 0.465177 2.29452 7.93502 1.78637 14.7443C1.73556 15.1 1.5323 15.3032 1.27822 15.3032Z" transform="translate(151.66 117.218)" fill="white"/>
<path d="M45.1598 4.06034C30.1185 -2.24074 12.3331 -2.39319 3.49128 12.1908C-5.35056 26.7747 4.2027 39.2753 14.3657 46.0337C24.5288 52.7921 45.5155 49.4383 51.969 36.2264C58.3717 23.0144 55.6785 8.43045 45.1598 4.06034Z" transform="translate(15.5994)" fill="#F7D2E0"/>
<path d="M4.92907 9.85815C7.65133 9.85815 9.85815 7.65133 9.85815 4.92907C9.85815 2.20682 7.65133 0 4.92907 0C2.20682 0 0 2.20682 0 4.92907C0 7.65133 2.20682 9.85815 4.92907 9.85815Z" transform="translate(63.6555 42.121)" fill="#F7D2E0"/>
<path d="M7.11413 14.2283C11.0432 14.2283 14.2283 11.0432 14.2283 7.11413C14.2283 3.1851 11.0432 0 7.11413 0C3.1851 0 0 3.1851 0 7.11413C0 11.0432 3.1851 14.2283 7.11413 14.2283Z" transform="translate(75.4956 41.9685)" fill="#F7D2E0"/>
<path d="M17.0739 7.07602L17.0231 7.0252C16.4641 6.46624 15.0921 5.04341 13.9742 3.87466L11.0777 0.876562C9.95978 -0.292187 8.07962 -0.292187 6.96168 0.876562L4.06522 3.87466C2.94728 5.04341 1.57527 6.46624 1.0163 7.0252L0.965486 7.07602C0.355703 7.6858 0 8.54966 0 9.46433V17.4423C0 19.3733 1.57527 20.9994 3.55706 20.9994H14.584C16.5149 20.9994 18.141 19.4241 18.141 17.4423V9.51515C18.0394 8.54966 17.6329 7.6858 17.0739 7.07602Z" transform="translate(34.4368 13.55)" fill="#DD4384"/>
<path d="M3.20136 6.40272C4.96942 6.40272 6.40272 4.96942 6.40272 3.20136C6.40272 1.4333 4.96942 0 3.20136 0C1.4333 0 0 1.4333 0 3.20136C0 4.96942 1.4333 6.40272 3.20136 6.40272Z" transform="translate(40.1788 23.9291)" fill="#F7D2E0"/>
<path d="M0 0L10.6204 4.92907C10.6204 4.92907 7.11413 8.84184 3.55706 8.0288C0 7.16494 0 0 0 0Z" transform="translate(108.373 76.2688)" fill="#BCBCBC"/>
<path d="M8.77158 5.64161C8.56832 5.64161 8.36505 5.48916 8.26342 5.2859C7.75527 3.609 6.89141 2.38944 5.62103 1.72884C3.38516 0.509274 0.641143 1.2715 0.641143 1.2715C0.387067 1.37313 0.0821698 1.22069 0.0313546 0.915797C-0.0702759 0.661721 0.0821759 0.356827 0.387067 0.306012C0.539513 0.255197 3.53761 -0.608662 6.18 0.814164C7.70445 1.62721 8.72076 3.05004 9.27973 4.98101C9.38136 5.23509 9.17809 5.53998 8.92402 5.59079C8.82238 5.64161 8.82239 5.64161 8.77158 5.64161Z" transform="translate(125.161 63.0049)" fill="#212121"/>
<defs>
<linearGradient id="paint0_linear" x2="1" gradientUnits="userSpaceOnUse" gradientTransform="translate(133.696 65.8227) scale(115.783) rotate(135)">
<stop stop-color="#4F216E"/>
<stop offset="0.0798354" stop-color="#562776"/>
<stop offset="0.4639" stop-color="#723F97"/>
<stop offset="0.7843" stop-color="#834FAB"/>
<stop offset="1" stop-color="#8954B2"/>
</linearGradient>
<linearGradient id="paint1_linear" x2="1" gradientUnits="userSpaceOnUse" gradientTransform="translate(40.6039 -0.0160576) scale(43.9806) rotate(90)">
<stop stop-color="#63BBA6"/>
<stop offset="0.4799" stop-color="#529F8C"/>
<stop offset="1" stop-color="#3C7C6B"/>
</linearGradient>
<linearGradient id="paint2_linear" x2="1" gradientUnits="userSpaceOnUse" gradientTransform="translate(132.1 0.00764369) scale(122.839) rotate(90)">
<stop stop-color="#70C7F6"/>
<stop offset="0.3612" stop-color="#6EC6F5"/>
<stop offset="0.5398" stop-color="#66C2F3"/>
<stop offset="0.6783" stop-color="#59BCEE"/>
<stop offset="0.7962" stop-color="#46B4E8"/>
<stop offset="0.8999" stop-color="#2EA9E0"/>
<stop offset="0.9941" stop-color="#119BD7"/>
<stop offset="1" stop-color="#0F9AD6"/>
</linearGradient>
<linearGradient id="paint3_linear" x2="1" gradientUnits="userSpaceOnUse" gradientTransform="translate(39.7126 0.0584375) scale(49.8664) rotate(90)">
<stop stop-color="#DD4384"/>
<stop offset="0.2069" stop-color="#E04D8B"/>
<stop offset="0.5577" stop-color="#E8689F"/>
<stop offset="1" stop-color="#F492BE"/>
</linearGradient>
</defs>
</svg>
